<svg xmlns="http://www.w3.org/2000/svg" width="250" height="125" fill="none" viewBox="0 0 250 125"><g clip-path="url(#clip0_2214_166209)"><path fill="#ECF8FF" d="M0 0h250v125H0z"/><path fill="#BDE9FF" d="m120.258 32.477 5.323-9.395 36.012 20.042-5.323 9.394-7.516-3.758-2.818 5.637-25.678-13.779 3.758-5.95-3.758-2.191ZM154.704 92.913l-25.052.627 1.879 8.768h8.768v5.637l-12.839.626-3.758 6.576 15.657 3.132 14.092-2.193 5.637-8.141-2.506-2.506-3.131 1.253v-6.263l6.576 1.879 1.879-5.01-7.202-4.385ZM122.449 15.253l1.253-5.01 6.889.939-.939 5.323-7.203-1.252Z"/><path fill="#85D6FF" d="M118.066 112.643c-.25 1.002-2.609 3.757-3.757 5.01l2.505 1.566c.209-.209.939-1.128 2.192-3.132 1.252-2.004 1.566-4.384 1.566-5.323v-5.637c0-3.758-.314-4.071-1.566-4.071-1.002 0-1.044 1.67-.94 2.505.105 2.61.251 8.08 0 9.082ZM167.857 57.529c1.002.5 6.263 1.252 8.768 1.565l-.626 2.818c-2.192-.313-6.889-1.127-8.142-1.879-1.566-.94-5.95-3.131-9.081-4.384-2.505-1.002-3.758.835-4.071 1.88h-3.132c2.505-6.577 6.576-5.01 8.142-4.385 1.566.627 6.889 3.758 8.142 4.385Z"/><path fill="#fff" stroke="#BDE9FF" stroke-width=".3" d="m216.707 93.854-38.831-10.647-1.565 4.697 22.859 5.95c4.593 1.044 15.094 3.82 20.355 6.576 6.576 3.445 12.213 8.768 15.344 11.587 2.506 2.254 5.846 11.169 7.203 15.344l3.444 11.9c1.671.939 4.572 1.19 2.819-5.324-2.192-8.142-5.637-16.284-10.647-24.739-4.009-6.764-15.658-13.047-20.981-15.344Z"/><path fill="#BDE9FF" d="m202.303 100.118-11.587-5.01-4.384 7.828-1.879 2.505c1.503 0 14.405 7.933 20.668 11.9l6.263-11.9-9.081-5.323ZM218.9 116.089l4.071-8.142 9.395 5.011-4.071 7.515-9.395-4.384ZM239.881 86.026l-14.404-5.95-5.637 10.96 16.597 8.142 3.444-13.152ZM229.859 120.158l-9.394 2.192 2.192 10.647 9.707-2.505-2.505-10.334Z"/><mask id="path-9-inside-1_2214_166209" fill="#fff"><path fill-rule="evenodd" d="M73.573 53.772c0 2.505.225 8.417 1.125 12.024l-9.751 4.51c-.75.25-2.026 1.127-1.126 2.63.9 1.503 4.626 7.641 6.376 10.522.125.501.9 1.278 3 .376s5.126-2.13 6.376-2.63c1.126 2.254 3.526 6.989 4.126 7.89.6.903 1.5 1.88 1.875 2.256 5.194 10.02 20.216 31.252 38.754 36.012 3.654 1.148 12.965 3.382 20.981 3.131l2.192 23.173c.418 3.445.564 10.334-2.192 10.334h9.395c.626-1.983 1.691-7.015.939-11.273 3.236.208 10.083.25 11.587-1.253.121-.122.237-.234.347-.34 1.245-1.208 1.708-1.657 1.218-6.549-.313-3.132-1.378-8.205-5.636-8.455-4.259-.251-8.247-.105-9.708 0v-8.768c4.593-1.879 14.342-8.08 16.597-17.85l31.315 17.85c1.252.104 3.758 1.816 3.758 7.828 0 6.013 2.087 18.372 3.131 23.8l5.01-.94-4.07-22.86c-.105-3.34-1.378-10.396-5.637-11.899-4.259-1.503-23.069-12.318-31.941-17.537 1.148-2.296 3.757-8.392 5.01-14.404 1.566-7.516 5.637-29.75 3.445-44.468-5.324-25.678-30.063-32.88-43.215-35.386-10.379-1.976-16.273-1.808-21.837-1.65a154.65 154.65 0 0 1-4.467.085c-7.203 0-10.647-7.203-10.647-11.587 0-4.384 5.323-6.889 11.586-9.081 5.01-1.754 11.273-4.906 13.779-6.263l-21.294 5.323c-10.23 6.92-8.319 11.816-6.765 15.8.064.163.127.324.188.484 1.253 3.257 4.906 6.785 6.577 8.142L93.64 18.073c.417-1.357 1.44-4.572 2.192-6.577.549-1.464.456-2.072.284-3.2a21.877 21.877 0 0 1-.284-3.689c0-3.085-.466-3.844-1.178-5.006-.3-.488-.643-1.048-1.014-1.883-1.002-2.255-5.795-4.28-8.066-5.01l-8.25 1.879c1.263.626 4.307 1.878 6.375 1.878 2.092 0 3.745 1.435 5.523 2.978.419.364.845.735 1.286 1.093 1.75 1.425 1.675 2.67 1.537 4.963a40.397 40.397 0 0 0-.095 2.553c0 3.257-2.5 9.29-3.75 11.9-13.12 7.766-15.219 25.782-14.627 33.82ZM89.7 91.347c-1.75-2.255-5.55-7.741-6.75-11.65l6-2.254c1.25-.501 3.75-2.104 3.75-4.51 0-2.404-.5-6.763-.75-8.642-.25-2.255-1.5-6.764-4.5-6.764H77.323v-3.758c-2.562-19.165 8.252-27.87 12.377-29.75 3.3-1.502 16.528-6.888 22.729-9.394 24.979-1.565 46.972 8.142 54.488 14.718 6.012 5.261 9.394 17.85 10.334 23.487.209-.522.501.626 0 9.394-.464 8.115-2.644 19.664-3.745 25.494-.386 2.044-.639 3.385-.639 3.629 0 .94-5.637 16.284-8.455 21.294-2.819 5.01-10.021 11.273-16.91 12.839-5.094 1.158-14.295-.595-19.505-1.587-1.838-.35-3.179-.605-3.668-.605-1.504 0-7.725-3.967-10.647-5.95-8.268-3.758-19.433-18.893-23.982-25.991Z" clip-rule="evenodd"/></mask><path fill="#fff" fill-rule="evenodd" d="M73.573 53.772c0 2.505.225 8.417 1.125 12.024l-9.751 4.51c-.75.25-2.026 1.127-1.126 2.63.9 1.503 4.626 7.641 6.376 10.522.125.501.9 1.278 3 .376s5.126-2.13 6.376-2.63c1.126 2.254 3.526 6.989 4.126 7.89.6.903 1.5 1.88 1.875 2.256 5.194 10.02 20.216 31.252 38.754 36.012 3.654 1.148 12.965 3.382 20.981 3.131l2.192 23.173c.418 3.445.564 10.334-2.192 10.334h9.395c.626-1.983 1.691-7.015.939-11.273 3.236.208 10.083.25 11.587-1.253.121-.122.237-.234.347-.34 1.245-1.208 1.708-1.657 1.218-6.549-.313-3.132-1.378-8.205-5.636-8.455-4.259-.251-8.247-.105-9.708 0v-8.768c4.593-1.879 14.342-8.08 16.597-17.85l31.315 17.85c1.252.104 3.758 1.816 3.758 7.828 0 6.013 2.087 18.372 3.131 23.8l5.01-.94-4.07-22.86c-.105-3.34-1.378-10.396-5.637-11.899-4.259-1.503-23.069-12.318-31.941-17.537 1.148-2.296 3.757-8.392 5.01-14.404 1.566-7.516 5.637-29.75 3.445-44.468-5.324-25.678-30.063-32.88-43.215-35.386-10.379-1.976-16.273-1.808-21.837-1.65a154.65 154.65 0 0 1-4.467.085c-7.203 0-10.647-7.203-10.647-11.587 0-4.384 5.323-6.889 11.586-9.081 5.01-1.754 11.273-4.906 13.779-6.263l-21.294 5.323c-10.23 6.92-8.319 11.816-6.765 15.8.064.163.127.324.188.484 1.253 3.257 4.906 6.785 6.577 8.142L93.64 18.073c.417-1.357 1.44-4.572 2.192-6.577.549-1.464.456-2.072.284-3.2a21.877 21.877 0 0 1-.284-3.689c0-3.085-.466-3.844-1.178-5.006-.3-.488-.643-1.048-1.014-1.883-1.002-2.255-5.795-4.28-8.066-5.01l-8.25 1.879c1.263.626 4.307 1.878 6.375 1.878 2.092 0 3.745 1.435 5.523 2.978.419.364.845.735 1.286 1.093 1.75 1.425 1.675 2.67 1.537 4.963a40.397 40.397 0 0 0-.095 2.553c0 3.257-2.5 9.29-3.75 11.9-13.12 7.766-15.219 25.782-14.627 33.82ZM89.7 91.347c-1.75-2.255-5.55-7.741-6.75-11.65l6-2.254c1.25-.501 3.75-2.104 3.75-4.51 0-2.404-.5-6.763-.75-8.642-.25-2.255-1.5-6.764-4.5-6.764H77.323v-3.758c-2.562-19.165 8.252-27.87 12.377-29.75 3.3-1.502 16.528-6.888 22.729-9.394 24.979-1.565 46.972 8.142 54.488 14.718 6.012 5.261 9.394 17.85 10.334 23.487.209-.522.501.626 0 9.394-.464 8.115-2.644 19.664-3.745 25.494-.386 2.044-.639 3.385-.639 3.629 0 .94-5.637 16.284-8.455 21.294-2.819 5.01-10.021 11.273-16.91 12.839-5.094 1.158-14.295-.595-19.505-1.587-1.838-.35-3.179-.605-3.668-.605-1.504 0-7.725-3.967-10.647-5.95-8.268-3.758-19.433-18.893-23.982-25.991Z" clip-rule="evenodd"/><path fill="#BDE9FF" d="m74.698 65.796.126.273.225-.104-.06-.241-.291.072Zm-1.125-12.024h.3v-.011l-.001-.011-.3.022Zm-8.626 16.534.094.284.016-.005.015-.007-.126-.272Zm5.25 13.152.291-.073-.01-.044-.024-.039-.257.156Zm3 .376.119.276-.118-.276Zm6.376-2.63.269-.134-.124-.248-.256.103.111.279Zm4.126 7.89-.25.167.25-.166Zm1.875 2.256.267-.139-.022-.04-.032-.033-.213.212Zm38.754 36.012.09-.287-.007-.002-.008-.002-.075.291Zm20.981 3.131.299-.028-.027-.281-.281.009.009.3Zm2.192 23.173-.299.028.001.008.298-.036ZM154.704 164v.3h.22l.066-.21-.286-.09Zm.939-11.273.019-.3-.381-.024.067.376.295-.052Zm11.587-1.253.212.212-.212-.212Zm.347-.34-.209-.216.209.216Zm1.218-6.549.299-.03-.299.03Zm-15.344-8.455h-.3v.322l.321-.023-.021-.299Zm0-8.768-.114-.278-.186.076v.202h.3Zm16.597-17.85.148-.261-.35-.199-.09.393.292.067Zm31.315 17.85-.149.26.058.033.066.006.025-.299Zm6.889 31.628-.295.056.057.294.293-.056-.055-.294Zm5.01-.94.056.295.292-.055-.052-.292-.296.052Zm-4.07-22.86-.3.01v.021l.004.022.296-.053Zm-37.578-29.436-.269-.134-.125.251.242.142.152-.259Zm5.01-14.404.294.06-.294-.06Zm3.445-44.468.296-.044-.001-.008-.002-.008-.293.06Zm-43.215-35.386.056-.294-.056.294Zm-21.837-1.65.009.3-.009-.3Zm-3.528-20.583-.099-.283.099.283ZM125.268-17l.143.264-.216-.555.073.291Zm-21.294 5.323-.073-.29-.052.012-.044.03.169.248Zm-6.765 15.8-.28.109.28-.109Zm.188.484-.28.108.28-.108Zm6.577 8.142.137.267.408-.21-.356-.29-.189.233ZM93.64 18.073l-.287-.089-.21.682.634-.327-.137-.266Zm2.192-6.577.28.106-.28-.106Zm.284-3.2.297-.045-.297.045ZM94.654-.399l.256-.156-.256.156ZM93.64-2.282l.274-.122-.274.122Zm-8.066-5.01.092-.286-.078-.025-.08.018.066.293Zm-8.25 1.879-.067-.293-.822.187.755.374.133-.268ZM89.221-.557l.196-.226-.197.226ZM90.508.536l-.19.233.19-.233ZM92.045 5.5l-.3-.018.3.018ZM88.2 19.952l.152.258.079-.047.04-.082-.271-.13Zm-5.25 59.746-.106-.281-.264.099.082.27.287-.088Zm6.75 11.649.253-.162-.008-.011-.008-.011-.237.184Zm-.75-13.904.106.28.006-.002-.112-.278Zm3-13.152-.298.033.001.006.297-.04Zm-14.627-6.764h-.3v.3h.3v-.3Zm0-3.758h.3v-.02l-.002-.02-.297.04ZM89.7 24.019l-.124-.272.124.273Zm22.729-9.394-.019-.3-.048.004-.045.018.112.278Zm54.488 14.718-.198.226.198-.226Zm10.334 23.487-.296.049.176 1.057.398-.995-.278-.111Zm0 9.394-.3-.017.3.017Zm-3.745 25.494.295.055-.295-.055Zm-9.094 24.923.261.147-.261-.147Zm-16.91 12.839-.067-.293.067.293Zm-19.505-1.587-.056.295.056-.295Zm-14.315-6.555.168-.248-.021-.014-.023-.011-.124.273ZM74.989 65.724c-.89-3.569-1.116-9.449-1.116-11.952h-.6c0 2.507.224 8.451 1.134 12.097l.582-.145Zm-9.917 4.854 9.752-4.51-.252-.544-9.752 4.51.252.544Zm-.993 2.204c-.202-.337-.27-.62-.267-.85.004-.231.079-.433.2-.611.251-.366.692-.618 1.03-.73l-.19-.57c-.413.138-.985.45-1.335.96-.178.262-.3.576-.305.94-.006.364.104.755.352 1.17l.515-.309Zm6.375 10.52c-1.751-2.881-5.476-9.018-6.375-10.52l-.515.309c.9 1.504 4.627 7.643 6.377 10.523l.513-.312Zm2.625.256c-1.015.436-1.656.443-2.035.327-.372-.113-.519-.352-.556-.5l-.582.146c.088.353.391.753.963.928.565.173 1.361.117 2.447-.35l-.237-.55Zm6.383-2.633c-1.25.501-4.28 1.73-6.383 2.633l.237.552c2.097-.9 5.12-2.127 6.369-2.628l-.223-.557Zm4.487 8.004c-.289-.434-1.03-1.824-1.85-3.41a379.818 379.818 0 0 1-2.257-4.45l-.537.268a380.576 380.576 0 0 0 2.262 4.457c.811 1.57 1.57 2.999 1.882 3.467l.5-.332Zm1.838 2.209c-.37-.37-1.254-1.331-1.838-2.21l-.5.333c.616.925 1.532 1.918 1.913 2.3l.425-.423Zm38.616 35.933c-9.19-2.36-17.533-8.811-24.237-15.948-6.702-7.134-11.74-14.924-14.325-19.912l-.533.276c2.608 5.033 7.678 12.869 14.42 20.047 6.739 7.174 15.177 13.718 24.526 16.118l.149-.581Zm20.897 3.122c-7.969.249-17.244-1.974-20.882-3.118l-.18.573c3.669 1.153 13.016 3.397 21.081 3.145l-.019-.6Zm2.5 23.445-2.192-23.173-.597.056 2.192 23.173.597-.056Zm-2.491 10.662c.844 0 1.434-.538 1.83-1.291.392-.748.625-1.759.754-2.849.26-2.185.116-4.795-.094-6.53l-.596.072c.208 1.71.346 4.267.094 6.387-.126 1.064-.348 1.99-.69 2.641-.339.647-.764.97-1.298.97v.6Zm9.395-.6h-9.395v.6h9.395v-.6Zm.644-10.921c.739 4.191-.311 9.169-.93 11.131l.572.18c.633-2.004 1.712-7.089.949-11.415l-.591.104Zm11.669-1.517c-.31.31-.944.576-1.843.779-.882.199-1.963.327-3.108.402-2.287.15-4.795.088-6.404-.016l-.038.599c1.627.105 4.161.168 6.482.016 1.16-.077 2.275-.207 3.2-.416.909-.205 1.695-.499 2.136-.94l-.425-.424Zm.351-.344c-.11.107-.227.22-.351.344l.425.424c.12-.12.234-.23.344-.337l-.418-.431Zm1.129-6.303c.245 2.45.244 3.737.048 4.556-.188.783-.555 1.144-1.177 1.747l.418.431c.623-.604 1.11-1.071 1.342-2.038.224-.93.21-2.314-.034-4.756l-.597.06Zm-5.356-8.186c1.985.117 3.238 1.348 4.047 2.981.813 1.642 1.153 3.649 1.309 5.205l.597-.06c-.158-1.576-.506-3.671-1.369-5.411-.866-1.749-2.275-3.18-4.549-3.314l-.035.599Zm-9.669 0c1.451-.104 5.425-.249 9.669 0l.035-.599c-4.273-.251-8.274-.105-9.746.001l.042.598Zm-.321-9.067v8.768h.6v-8.768h-.6Zm16.605-17.917c-1.11 4.806-4.066 8.748-7.332 11.73-3.266 2.981-6.821 4.982-9.087 5.909l.228.555c2.327-.952 5.943-2.99 9.264-6.021 3.32-3.032 6.366-7.075 7.511-12.038l-.584-.135Zm31.755 17.656-31.315-17.85-.297.522 31.315 17.849.297-.521Zm3.91 8.089c0-6.072-2.545-8.003-4.033-8.127l-.05.598c1.017.084 3.483 1.577 3.483 7.529h.6Zm3.126 23.743c-1.045-5.433-3.126-17.764-3.126-23.743h-.6c0 6.046 2.094 18.434 3.136 23.856l.59-.113Zm4.66-1.178-5.01.94.11.589 5.011-.939-.111-.59Zm-4.311-22.512 4.071 22.86.591-.105-4.071-22.86-.591.105Zm-5.441-11.669c1.998.705 3.339 2.734 4.194 5.08.851 2.333 1.191 4.9 1.243 6.546l.599-.019c-.053-1.694-.401-4.326-1.278-6.732-.872-2.393-2.298-4.643-4.558-5.441l-.2.566Zm-31.993-17.561c4.437 2.61 11.36 6.62 17.706 10.165 3.173 1.772 6.204 3.43 8.708 4.738 2.498 1.305 4.491 2.273 5.579 2.658l.2-.566c-1.041-.368-2.997-1.315-5.501-2.623-2.497-1.305-5.522-2.96-8.693-4.731a983.344 983.344 0 0 1-17.695-10.158l-.304.517Zm4.868-14.725c-1.245 5.98-3.844 12.051-4.985 14.332l.537.268c1.156-2.311 3.776-8.432 5.036-14.477l-.588-.123Zm3.442-44.361c1.09 7.32.624 16.526-.315 24.856-.938 8.326-2.345 15.753-3.127 19.505l.588.123c.784-3.764 2.195-11.21 3.136-19.56.94-8.345 1.413-17.614.311-25.013l-.593.088ZM136.798 11.79c13.152 2.505 37.696 9.678 42.977 35.152l.587-.121c-5.365-25.883-30.299-33.115-43.452-35.62l-.112.59Zm-21.772-1.645c5.554-.158 11.423-.326 21.772 1.645l.112-.59c-10.41-1.982-16.328-1.813-21.901-1.654l.017.6Zm-4.476.085c1.523 0 2.99-.042 4.476-.085l-.017-.6c-1.487.043-2.946.085-4.459.085v.6ZM99.603-1.656c0 2.259.883 5.218 2.682 7.618 1.806 2.407 4.55 4.269 8.265 4.269v-.6c-3.488 0-6.068-1.74-7.785-4.03-1.723-2.297-2.562-5.131-2.562-7.257h-.6Zm11.787-9.364c-3.133 1.096-6.063 2.281-8.212 3.754-2.151 1.474-3.575 3.276-3.575 5.61h.6c0-2.049 1.237-3.692 3.314-5.115 2.078-1.424 4.941-2.587 8.071-3.683l-.198-.566Zm13.735-6.244c-2.5 1.354-8.747 4.498-13.735 6.244l.198.566c5.033-1.761 11.312-4.923 13.823-6.282l-.286-.528Zm-21.079 5.879 21.294-5.324-.145-.582-21.294 5.324.145.582ZM97.489 4.014c-.78-2-1.607-4.137-1.024-6.621.582-2.481 2.59-5.38 7.677-8.821l-.337-.497c-5.142 3.479-7.293 6.488-7.924 9.18-.631 2.69.275 4.994 1.049 6.977l.559-.218Zm.188.486c-.061-.161-.125-.323-.188-.486l-.56.218.188.483.56-.215Zm6.486 8.016c-.823-.668-2.142-1.878-3.408-3.323-1.27-1.45-2.47-3.114-3.078-4.693l-.56.215c.645 1.677 1.9 3.405 3.186 4.873 1.291 1.473 2.634 2.705 3.481 3.394l.379-.466ZM93.777 18.34l10.334-5.323-.275-.534-10.334 5.324.275.533Zm1.774-6.948c-.755 2.014-1.78 5.236-2.198 6.593l.573.177c.418-1.357 1.438-4.564 2.187-6.56l-.562-.21Zm.269-3.05c.086.57.147.973.125 1.414-.022.436-.127.922-.394 1.636l.562.21c.28-.75.405-1.3.43-1.816.027-.511-.045-.976-.13-1.534l-.593.09Zm-.288-3.734c0 1.844.164 2.925.288 3.734l.593-.09c-.121-.795-.281-1.843-.281-3.644h-.6ZM94.398-.242c.356.581.63 1.03.823 1.707.195.682.31 1.612.31 3.142h.6c0-1.555-.116-2.547-.333-3.306-.217-.765-.532-1.276-.888-1.856l-.512.313ZM93.366-2.16c.379.854.731 1.428 1.032 1.918l.512-.313a14.566 14.566 0 0 1-.996-1.849l-.549.244Zm-7.884-4.847c1.122.361 2.87 1.043 4.457 1.911.793.435 1.54.912 2.146 1.414.61.505 1.057 1.019 1.28 1.522l.549-.244c-.278-.624-.805-1.209-1.447-1.74-.645-.535-1.427-1.033-2.24-1.478a28.09 28.09 0 0 0-4.56-1.956l-.185.571ZM77.39-5.12 85.64-7l-.132-.585-8.251 1.879.133.585Zm6.309 1.286c-.985 0-2.226-.3-3.395-.689a23.622 23.622 0 0 1-2.848-1.158l-.266.537a24.22 24.22 0 0 0 2.925 1.19c1.186.395 2.5.72 3.584.72v-.6Zm5.72 3.052c-.885-.768-1.762-1.53-2.684-2.097-.927-.57-1.917-.955-3.036-.955v.6c.973 0 1.855.333 2.722.866.872.537 1.71 1.264 2.604 2.039l.393-.453ZM90.697.304c-.437-.356-.86-.723-1.28-1.087l-.393.453c.419.364.849.737 1.294 1.099l.379-.465Zm1.646 5.213c.069-1.132.128-2.066-.067-2.894-.2-.853-.664-1.574-1.58-2.32L90.32.77c.835.68 1.21 1.293 1.374 1.992.17.724.123 1.56.052 2.72l.6.037Zm-.094 2.535c0-.974.05-1.803.094-2.534l-.599-.037c-.044.731-.095 1.577-.095 2.57h.6Zm-3.78 12.03a59.59 59.59 0 0 0 2.357-5.739c.782-2.243 1.423-4.607 1.423-6.291h-.6c0 1.573-.609 3.853-1.39 6.094a59.01 59.01 0 0 1-2.331 5.676l.541.26ZM73.872 53.75c-.293-3.985.08-10.46 2.158-16.898 2.077-6.438 5.847-12.81 12.322-16.642l-.305-.517c-6.645 3.933-10.484 10.454-12.588 16.975-2.104 6.52-2.484 13.073-2.186 17.126l.599-.044Zm8.79 26.036c.612 1.991 1.879 4.366 3.201 6.513a62.75 62.75 0 0 0 3.6 5.232l.474-.368a62.139 62.139 0 0 1-3.563-5.178c-1.316-2.137-2.55-4.459-3.138-6.375l-.574.176Zm6.183-2.624-6.001 2.255.21.561 6.002-2.254-.211-.562Zm3.556-4.228c0 1.092-.568 2.022-1.317 2.754a7.314 7.314 0 0 1-2.246 1.477l.224.556a7.91 7.91 0 0 0 2.442-1.604c.814-.796 1.497-1.87 1.497-3.183h-.6Zm-.748-8.604c.25 1.88.748 6.221.748 8.604h.6c0-2.428-.503-6.805-.753-8.683l-.595.08Zm-4.203-6.503c1.325 0 2.31.993 3.014 2.373.698 1.367 1.066 3.02 1.188 4.124l.597-.066c-.128-1.151-.51-2.88-1.25-4.331-.734-1.44-1.874-2.7-3.55-2.7v.6Zm-8.251 0h8.25v-.6H79.2v.6Zm-1.876 0H79.2v-.6h-1.876v.6Zm-.3-4.058v3.758h.6v-3.758h-.6Zm12.553-30.022c-4.229 1.925-15.132 10.748-12.55 30.062l.595-.08c-2.542-19.016 8.18-27.604 12.204-29.436l-.25-.546Zm22.741-9.4c-6.198 2.504-19.433 7.893-22.741 9.4l.249.546c3.292-1.5 16.511-6.883 22.716-9.39l-.224-.556Zm54.797 14.77c-3.799-3.324-11.218-7.411-20.801-10.472-9.59-3.062-21.37-5.105-33.903-4.32l.038.6c12.446-.78 24.152 1.248 33.682 4.292 9.537 3.046 16.873 7.1 20.589 10.352l.395-.451Zm10.433 23.663c-.473-2.835-1.558-7.411-3.28-11.941-1.719-4.521-4.089-9.041-7.153-11.721l-.395.451c2.949 2.58 5.277 6.985 6.987 11.483 1.706 4.489 2.782 9.026 3.249 11.827l.592-.099Zm.003 9.461c.251-4.385.304-6.875.267-8.206-.018-.655-.058-1.06-.119-1.273a.669.669 0 0 0-.077-.177.347.347 0 0 0-.306-.16.356.356 0 0 0-.265.149.631.631 0 0 0-.078.144l.557.223c.009-.022.011-.021.002-.01a.196.196 0 0 1-.044.044.265.265 0 0 1-.14.048.254.254 0 0 1-.225-.105c-.013-.019-.01-.023-.001.009.037.13.078.461.096 1.124.036 1.305-.015 3.773-.266 8.156l.599.034Zm-3.749 25.532c1.099-5.824 3.284-17.393 3.749-25.532l-.599-.034c-.462 8.092-2.638 19.62-3.74 25.455l.59.111Zm-.634 3.574c0-.033.011-.138.042-.337.029-.188.072-.44.128-.75.111-.62.271-1.464.464-2.487l-.59-.11c-.193 1.02-.353 1.868-.465 2.491-.056.312-.1.569-.13.764-.029.186-.049.34-.049.429h.6Zm-8.494 21.441c1.422-2.527 3.543-7.636 5.303-12.213a203.363 203.363 0 0 0 2.249-6.11c.287-.827.52-1.527.681-2.05.08-.263.144-.483.187-.655.041-.16.074-.31.074-.413h-.6l-.002.017a4.45 4.45 0 0 1-.053.248c-.04.158-.101.368-.18.626a64.124 64.124 0 0 1-.673 2.03 208.325 208.325 0 0 1-2.243 6.092c-1.762 4.582-3.869 9.651-5.266 12.134l.523.294Zm-17.105 12.985c3.502-.796 7.065-2.78 10.102-5.186 3.036-2.405 5.57-5.252 7.003-7.799l-.523-.294c-1.385 2.463-3.861 5.253-6.853 7.623-2.992 2.37-6.474 4.301-9.862 5.07l.133.586Zm-19.627-1.585c2.604.496 6.217 1.184 9.817 1.603 3.592.417 7.21.573 9.81-.018l-.133-.586c-2.493.567-6.022.425-9.607.008-3.576-.416-7.169-1.1-9.775-1.597l-.112.59Zm-3.612-.6c.214 0 .645.058 1.278.167.622.107 1.414.258 2.334.433l.112-.59c-.918-.174-1.715-.326-2.345-.434-.62-.107-1.104-.176-1.379-.176v.6Zm-10.816-6.002a116.05 116.05 0 0 0 5.872 3.729c1.058.622 2.076 1.185 2.927 1.593.426.204.814.371 1.148.489.326.114.628.191.869.191v-.6c-.135 0-.357-.047-.67-.157a11.2 11.2 0 0 1-1.087-.464c-.83-.398-1.831-.951-2.883-1.569a115.78 115.78 0 0 1-5.839-3.708l-.337.496ZM89.448 91.509c2.28 3.558 6.217 9.128 10.621 14.281 4.393 5.141 9.288 9.912 13.488 11.821l.249-.546c-4.067-1.849-8.888-6.524-13.281-11.665-4.383-5.129-8.304-10.676-10.572-14.215l-.505.324Z" mask="url(#path-9-inside-1_2214_166209)"/><path stroke="#0194F3" stroke-width=".5" d="m160.967 63.084 4.478-9.311 5.598-17.85-1.308-18.475L173.18 1.79l-.94-8.142c.558-1.774 2.07-5.448 3.655-5.95 1.982-.626 5.426-3.444 7.932-3.444 2.505 0 5.104.313 6.623.94 1.519.626 12.174 8.141 14.671 11.586 1.997 2.756 7.721 8.664 10.334 11.273l-1.493 1.566h-6.345c-.832 1.044-2.496 3.82-2.496 6.576s-3.758 12.84-5.637 17.536c-1.67 1.253-4.885 4.384-4.384 6.89.501 2.505 3.132 9.812 4.384 13.152.285 3.549 1.489 10.647 4.028 10.647h7.559l8.141-5.01c1.984-1.149 6.89-3.32 10.648-2.819 3.757.501 6.367 3.55 7.202 5.01l-2.192 9.395-1.879 9.708h-12.213l-5.323-1.978-1.493-1.118-6.345-8.566h-4.105l-2.239 4.47c-2.239-.125-6.867-.373-7.464-.373-.597 0-2.488 6.456-3.359 9.683l-2.239 2.607c-3.608.62-11.122 1.788-12.316 1.49-1.194-.298-3.732-5.587-4.852-8.194l-5.225-6.703-4.851-8.938Z"/><path fill="#ECF8FF" stroke="#BDE9FF" stroke-width=".3" d="M85.785 60.055h-8.742c.398 2.984 1.272 9.187 1.59 10.12.318.935 2.252 5.32 3.179 7.397 1.59-.65 5.166-2.103 6.755-2.725 1.59-.623 1.722-2.855 1.59-3.893a446.948 446.948 0 0 0-.795-7.785c-.318-2.802-2.517-3.244-3.576-3.114ZM77.306 75.163c-.97-1.973-1.75-5.48-2.02-6.987l-8.89 4.11 5.657 9.042 3.435-1.233 3.434-1.233c-.134-.411-.646-1.726-1.616-3.7Z"/><path fill="#BDE9FF" d="m34.716 74.064-4.019.751 2.192 10.898 6.576-1.503-2.557-11.65-2.192.376v1.128Z"/><path fill="#85D6FF" d="m57.092 69.428-3.22.696 2.012 5.567 3.624-1.044-1.208-3.828-.805.348-.403-1.74Z"/><path fill="#BDE9FF" d="M94.12 54.891c0-.298 1-.87 1.501-1.12h23.265l3.002 1.494c.751.373.376.373.751 1.493s.375 1.493.375 1.866-.375.747-.75 1.493c-.301.598-1.626 1.245-2.252 1.494h-2.251l.375 2.986c.25.249.825.896 1.126 1.493.3.597.125 1.742 0 2.24l-1.126 1.12v2.613c1.001.248 3.152.82 3.752 1.12.601.298 1.001 1.12 1.126 1.493l.375 2.613-1.125 1.866-2.627 1.12c-2.252.622-7.28 2.016-9.381 2.613-2.627.747-12.383 0-12.759-.373-.375-.374-3.002-2.987-3.002-3.36 0-.299.25-1.866.376-2.613l2.251-1.866c-.625-1.618-1.876-5.077-1.876-5.973 0-1.12.375-3.733.375-5.6 0-1.866.375-2.239.375-2.612 0-.374-.75-.747-1.125-1.12-.376-.373-.376-1.493-.75-2.24-.376-.746 0-1.866 0-2.24Z"/><path fill="#85D6FF" d="M111.49 86.338v5.01h5.637v-2.312h-.403l-.402-2.698h-4.832ZM134.037 76.945h-3.758v4.384h3.758v-4.384ZM144.879 73.813l-4.58 5.088 1.057 1.175 4.58-5.09-1.057-1.174ZM187.271 91.047l-4.963 11.551 2.859 1.411 4.922-11.719-2.818-1.243ZM212.44 105.303l-7.944 14.858 9.394 4.071 7.202-14.718-8.652-4.211ZM146.562 62.537V56.9h8.768v5.637h-8.768Z"/><path fill="#ECF8FF" stroke="#BDE9FF" stroke-width=".3" d="m183.514 68.803-3.382.378-2.255 14.012 5.637 1.894V68.803Z"/><path fill="#BDE9FF" d="m209.639 64.416 3.101 2.147h2.714v1.432l-2.714 6.442-5.428-1.432 2.327-8.589Z"/><path fill="#85D6FF" d="m187.898 58.141-3.48-1.864-2.087 6.71-.696 7.83 6.263 1.118V58.14ZM191.029 57.8l.366-2.148 4.018.358-.365 2.148-4.019-.358Z"/><path fill="#BDE9FF" d="m188.681 55.024-.783-1.252h6.263l-5.48 1.252Z"/><path fill="#85D6FF" d="M174.746 73.5v-1.566l6.889.313v1.566l-6.889-.314ZM209.193 65.181l-3.523-.765-3.106 5.23 4.594 1.914 2.035-6.379Z"/><path fill="#BDE9FF" d="m202.123 69.428 4.563-7.342-6.464-3.305-4.183 6.976 1.521 1.468v.735l4.563 1.468Z"/><path fill="#85D6FF" d="m160.901 57.53 6.329 2.862-1.186 2.148-6.329-3.221 1.186-1.79Z"/><path fill="#BDE9FF" d="m184.253 71.047 3.366.368v1.103l2.993.735 1.122-2.573 14.213 4.043-.374.736 2.993.735-2.619 10.66-.748-.367-.374 1.103-18.328-4.78v-1.837l-4.862-7.72 2.618-2.206ZM220.153 79.763l-10.908-3.445-2.557 11.563 7.672 3.469 2.661 1.252 3.132-12.839ZM211.697 24.962l2.818 2.192-4.384 7.202-12.213-7.202 4.697-8.455 3.132 1.878 2.192-3.444 6.576 3.444-1.253 3.132h-1.565v1.253ZM184.453 23.395l5.95 11.273-8.142 5.323-6.263-12.526 8.455-4.07ZM192.282 38.739l-1.879-1.566-8.142 4.697 4.071 5.95 8.142-4.697-2.192-4.384ZM192.282 45.315h2.192l3.131 6.263-8.768 3.131-2.505-5.95 5.95-3.444ZM194.474 39.991l3.131-1.252 1.253 1.252-3.132 1.88-1.252-1.88ZM200.424 38.739l-1.566-1.566 2.192-1.879 1.253 1.88-1.879 1.565ZM220.465 60.66l-3.131 10.02 5.323 1.566 3.445-9.395-5.637-2.192ZM234.87 65.043h-7.202v10.334h7.202V65.043Z"/></g><defs><clipPath id="clip0_2214_166209"><path fill="#fff" d="M0 0h250v125H0z"/></clipPath></defs></svg>