<svg xmlns="http://www.w3.org/2000/svg" width="200" height="200" fill="none" viewBox="0 0 200 200"><circle cx="100" cy="100" r="100" fill="#F7FCDE"/><mask id="mask0_2733_7735" width="200" height="200" x="0" y="0" maskUnits="userSpaceOnUse" style="mask-type:alpha"><path fill="#F7FCDE" d="M200 100c0 55.228-44.772 100-100 100S0 155.228 0 100 44.772 0 100 0s100 44.772 100 100Z"/></mask><g mask="url(#mask0_2733_7735)"><path fill="#F5FBFF" d="M36.293 34.873A6.423 6.423 0 0 1 42.692 29h48.877a6.423 6.423 0 0 1 6.422 6.423V191.23a6.422 6.422 0 0 1-5.994 6.408l-62.628 4.186c-3.927.262-7.165-3.037-6.828-6.959L36.293 34.873Z"/><path fill="#91D6FD" d="M22.069 205h13.749l79.926-2.141 5.977-16.681c-59.188 7.089-63.451 5.799-100.011 16.051-1.591.447-1.294 2.771.359 2.771Z"/><rect width="8.028" height="9.456" x="40.369" y="34.709" fill="#D1F0FF" rx="2.319"/><rect width="8.028" height="9.456" x="51.607" y="34.709" fill="#D1F0FF" rx="2.319"/><rect width="8.028" height="9.456" x="62.85" y="34.709" fill="#D1F0FF" rx="2.319"/><rect width="8.028" height="9.456" x="74.088" y="34.709" fill="#D1F0FF" rx="2.319"/><rect width="8.028" height="9.456" x="85.328" y="34.709" fill="#D1F0FF" rx="2.319"/><rect width="8.028" height="9.456" x="40.369" y="48.446" fill="#D1F0FF" rx="2.319"/><rect width="8.028" height="9.456" x="51.607" y="48.446" fill="#D1F0FF" rx="2.319"/><rect width="8.028" height="9.456" x="62.85" y="48.446" fill="#D1F0FF" rx="2.319"/><rect width="8.028" height="9.456" x="74.088" y="48.446" fill="#D1F0FF" rx="2.319"/><rect width="8.028" height="9.456" x="85.328" y="48.446" fill="#D1F0FF" rx="2.319"/><rect width="8.028" height="9.456" x="40.369" y="62.184" fill="#D1F0FF" rx="2.319"/><rect width="8.028" height="9.456" x="51.607" y="62.184" fill="#D1F0FF" rx="2.319"/><rect width="8.028" height="9.456" x="62.85" y="62.184" fill="#D1F0FF" rx="2.319"/><rect width="8.028" height="9.456" x="74.088" y="62.184" fill="#D1F0FF" rx="2.319"/><rect width="8.028" height="9.456" x="85.328" y="62.184" fill="#D1F0FF" rx="2.319"/><rect width="8.028" height="9.456" x="40.369" y="75.921" fill="#D1F0FF" rx="2.319"/><rect width="8.028" height="9.456" x="51.607" y="75.921" fill="#D1F0FF" rx="2.319"/><rect width="8.028" height="9.456" x="62.85" y="75.921" fill="#D1F0FF" rx="2.319"/><rect width="8.028" height="9.456" x="74.088" y="75.921" fill="#D1F0FF" rx="2.319"/><rect width="8.028" height="9.456" x="85.328" y="75.921" fill="#D1F0FF" rx="2.319"/><rect width="8.028" height="9.456" x="40.369" y="89.659" fill="#D1F0FF" rx="2.319"/><rect width="8.028" height="9.456" x="51.607" y="89.659" fill="#D1F0FF" rx="2.319"/><rect width="8.028" height="9.456" x="62.85" y="89.659" fill="#D1F0FF" rx="2.319"/><rect width="8.028" height="9.456" x="74.088" y="89.659" fill="#D1F0FF" rx="2.319"/><rect width="8.028" height="9.456" x="85.328" y="89.659" fill="#D1F0FF" rx="2.319"/><rect width="8.028" height="9.456" x="40.369" y="103.396" fill="#D1F0FF" rx="2.319"/><rect width="8.028" height="9.456" x="51.607" y="103.396" fill="#D1F0FF" rx="2.319"/><rect width="8.028" height="9.456" x="62.85" y="103.396" fill="#D1F0FF" rx="2.319"/><rect width="8.028" height="9.456" x="74.088" y="103.396" fill="#D1F0FF" rx="2.319"/><rect width="8.028" height="9.456" x="85.328" y="103.396" fill="#D1F0FF" rx="2.319"/><rect width="8.028" height="9.456" x="40.369" y="117.134" fill="#D1F0FF" rx="2.319"/><rect width="8.028" height="9.456" x="51.607" y="117.134" fill="#D1F0FF" rx="2.319"/><rect width="8.028" height="9.456" x="62.85" y="117.134" fill="#D1F0FF" rx="2.319"/><rect width="8.028" height="9.456" x="74.088" y="117.134" fill="#D1F0FF" rx="2.319"/><rect width="8.028" height="9.456" x="85.328" y="117.134" fill="#D1F0FF" rx="2.319"/><rect width="8.028" height="9.456" x="40.369" y="130.872" fill="#D1F0FF" rx="2.319"/><rect width="8.028" height="9.456" x="51.607" y="130.871" fill="#D1F0FF" rx="2.319"/><rect width="8.028" height="9.456" x="62.85" y="130.871" fill="#D1F0FF" rx="2.319"/><rect width="8.028" height="9.456" x="74.088" y="130.871" fill="#D1F0FF" rx="2.319"/><rect width="8.028" height="9.456" x="85.328" y="130.871" fill="#D1F0FF" rx="2.319"/><rect width="8.028" height="9.456" x="40.369" y="144.609" fill="#D1F0FF" rx="2.319"/><rect width="8.028" height="9.456" x="51.607" y="144.609" fill="#D1F0FF" rx="2.319"/><rect width="8.028" height="9.456" x="62.85" y="144.609" fill="#D1F0FF" rx="2.319"/><rect width="8.028" height="9.456" x="74.088" y="144.609" fill="#D1F0FF" rx="2.319"/><rect width="8.028" height="9.456" x="85.328" y="144.609" fill="#D1F0FF" rx="2.319"/><rect width="8.028" height="9.456" x="40.369" y="158.347" fill="#D1F0FF" rx="2.319"/><rect width="8.028" height="9.456" x="51.607" y="158.347" fill="#D1F0FF" rx="2.319"/><rect width="8.028" height="9.456" x="62.85" y="158.347" fill="#D1F0FF" rx="2.319"/><rect width="8.028" height="9.456" x="74.088" y="158.347" fill="#D1F0FF" rx="2.319"/><rect width="8.028" height="9.456" x="85.328" y="158.347" fill="#D1F0FF" rx="2.319"/><path fill="#D1F0FF" d="m97.994 33.638 14.451 24.353v131.397l-14.45 14.273V33.638Z"/><path fill="#91D6FD" d="M112.088 146.928a4.64 4.64 0 0 1 4.639-4.639h37.465a4.64 4.64 0 0 1 4.639 4.639v41.595l-41.441 5.987a4.638 4.638 0 0 1-5.302-4.59v-42.992Z"/><path fill="#91D6FD" d="M117.623 137.66a4.638 4.638 0 0 1 3.675-4.537l27.31-5.802a2.855 2.855 0 0 1 3.448 2.793v59.096h-34.433v-51.55Z"/><path fill="#91D6FD" d="M116.459 204.732H34.481c47.456-19.554 103.149-19.209 125.064-16.592l-43.086 16.592Z"/><path fill="#fff" d="M76.406 204.643c28.546-11.704 58.34-16.682 73.594-17.395-17.484.818-49.836 12.369-61.194 17.395h-12.4Z"/><rect width="3.925" height="4.639" x="143.133" y="135.688" fill="#D1F0FF" rx="1.07"/><rect width="3.925" height="4.639" x="137.064" y="135.688" fill="#D1F0FF" rx="1.07"/><rect width="3.925" height="4.639" x="130.645" y="135.688" fill="#D1F0FF" rx="1.07"/><path fill="#029D24" d="M135.124 330h-2.811a2.817 2.817 0 0 1-2.817-2.817V49.223a4.223 4.223 0 0 1 8.445 0v277.96a2.817 2.817 0 0 1-2.817 2.817Z"/><path fill="#36CF00" d="M101.654 57.731a4 4 0 0 1 4.349-3.617l56.318 5.171a4.002 4.002 0 0 1 2.61 1.31l9.016 10.031a1 1 0 0 1-.173 1.49l-10.614 7.39a3.997 3.997 0 0 1-2.651.701l-56.427-5.181a4 4 0 0 1-3.617-4.35l1.189-12.945Z"/><path fill="#BAF075" d="M99.845 55.556a4 4 0 0 1 4.349-3.617l56.319 5.172a4 4 0 0 1 2.609 1.31l9.016 10.03a1 1 0 0 1-.172 1.49l-10.614 7.39a4.001 4.001 0 0 1-2.652.702l-56.426-5.182a4 4 0 0 1-3.618-4.349l1.19-12.945Z"/><mask id="mask1_2733_7735" width="75" height="28" x="98" y="51" maskUnits="userSpaceOnUse" style="mask-type:alpha"><path fill="#BAF075" d="M99.845 55.556a4 4 0 0 1 4.349-3.617l56.319 5.172a4 4 0 0 1 2.609 1.31l9.016 10.03a1 1 0 0 1-.172 1.49l-10.614 7.39a4.001 4.001 0 0 1-2.652.702l-56.426-5.182a4 4 0 0 1-3.618-4.349l1.19-12.945Z"/></mask><g mask="url(#mask1_2733_7735)"><g opacity=".5"><path stroke="#F7FCDE" stroke-width=".64" d="M99.002 62.754c9.592.366 30.451.824 37.153-.27 6.702-1.095 30.579-2.168 41.679-2.568"/><path stroke="#F7FCDE" stroke-width=".341" d="M177.35 62.974c-6.14-.258-19.911-.488-25.873.657-7.453 1.432-14.587.868-15.95 2.84-1.363 1.971 5.473 2.652 8.39 2.652 2.918 0 28.641 2.722 32.666 1.878"/><path stroke="#F7FCDE" stroke-width=".341" d="M177.351 64.438c-4.09-.171-13.261-.324-17.232.437-4.963.952-9.714.578-10.622 1.889-.907 1.31 3.645 1.763 5.588 1.763s19.075 1.81 21.755 1.249"/><path stroke="#F7FCDE" stroke-width=".341" d="M169.121 65.918c3.795 0 11.633-.136 14.881 0l-.704 3.198c-2.129.446-15.735-.991-17.278-.991-1.543 0-5.159-.36-4.438-1.4.721-1.041 3.525-.806 7.539-.806ZM127.005 58.45c4.824.198 15.643.37 20.327-.532 5.855-1.127 11.461-.69 12.53-2.237 1.07-1.547-4.301-2.077-6.593-2.075-2.292.001-22.505-2.12-25.667-1.454M114.558 58.88c-4.477.003-13.724.171-17.556.013l.828-3.773c2.511-.528 18.564 1.156 20.384 1.155 1.821-.002 6.086.419 5.237 1.648-.85 1.228-4.157.953-8.893.957Z"/><path stroke="#F7FCDE" stroke-width=".64" d="M99.063 69.076c9.534 1.108 30.295 3.181 37.062 2.61 6.767-.573 30.655.208 41.753.67"/><path fill="#F7FCDE" d="M131.173 73.698c.024-.28.241-.32.346-.305.226-.058.234.099.249.224.012.1-.09.234-.143.288-.161.048-.476.073-.452-.207Z"/></g></g><path fill="#36CF00" d="M167.917 99.483a4 4 0 0 0-4.057-3.942l-56.55.813a3.997 3.997 0 0 0-2.702 1.104l-9.763 9.306a1 1 0 0 0 .056 1.498l10.013 8.188c.73.597 1.647.917 2.59.903l56.657-.814a4.001 4.001 0 0 0 3.943-4.057l-.187-12.999Z"/><path fill="#BAF075" d="M169.888 97.455a4 4 0 0 0-4.058-3.942l-56.549.812a4.001 4.001 0 0 0-2.703 1.104l-9.763 9.307a1 1 0 0 0 .057 1.498l10.013 8.187a4 4 0 0 0 2.589.904l56.658-.814a4 4 0 0 0 3.942-4.057l-.186-13Z"/><mask id="mask2_2733_7735" width="75" height="23" x="96" y="93" maskUnits="userSpaceOnUse" style="mask-type:alpha"><path fill="#BAF075" d="M169.888 97.455a4 4 0 0 0-4.058-3.942l-56.549.812a4.001 4.001 0 0 0-2.703 1.104l-9.763 9.307a1 1 0 0 0 .057 1.498l10.013 8.187a4 4 0 0 0 2.589.904l56.658-.814a4 4 0 0 0 3.942-4.057l-.186-13Z"/></mask><g mask="url(#mask2_2733_7735)"><g opacity=".5"><path stroke="#F7FCDE" stroke-width=".64" d="M178 102.754c-9.592.366-30.451.824-37.153-.271-6.702-1.094-30.579-2.167-41.68-2.567"/><path stroke="#F7FCDE" stroke-width=".341" d="M99.652 102.974c6.14-.258 19.911-.488 25.873.657 7.453 1.432 14.587.868 15.95 2.84 1.363 1.971-5.473 2.652-8.39 2.652-2.918 0-28.641 2.723-32.666 1.878"/><path stroke="#F7FCDE" stroke-width=".341" d="M99.651 104.438c4.09-.171 13.261-.324 17.231.437 4.964.952 9.715.578 10.623 1.889.907 1.311-3.645 1.763-5.588 1.763s-19.075 1.811-21.755 1.249"/><path stroke="#F7FCDE" stroke-width=".341" d="M107.881 105.918c-3.795 0-11.633-.136-14.881 0l.704 3.198c2.129.446 15.735-.991 17.278-.991 1.543 0 5.159-.36 4.438-1.4-.721-1.041-3.525-.806-7.539-.807ZM149.997 98.45c-4.824.198-15.643.37-20.327-.532-5.855-1.127-11.461-.69-12.53-2.237-1.07-1.547 4.301-2.077 6.593-2.075 2.292.001 22.505-2.12 25.667-1.454M162.444 98.88c4.477.003 13.724.171 17.556.013l-.828-3.773c-2.511-.528-18.564 1.156-20.384 1.155-1.821-.002-6.086.419-5.237 1.647.85 1.229 4.157.954 8.893.958Z"/><path stroke="#F7FCDE" stroke-width=".64" d="M177.939 109.076c-9.534 1.108-30.296 3.181-37.062 2.609-6.767-.572-30.655.209-41.753.671"/><path fill="#F7FCDE" d="M103.871 111.225c-.038-.431-.379-.493-.544-.469-.355-.088-.367.152-.39.345-.019.155.141.359.224.442.253.074.748.114.71-.318ZM102.938 101.759c.037-.431.378-.493.544-.469.355-.088.366.152.39.345.019.155-.142.359-.225.442-.252.074-.747.114-.709-.318ZM145.829 113.698c-.024-.28-.241-.32-.346-.305-.226-.058-.234.098-.249.224-.012.101.09.234.143.288.161.048.476.073.452-.207Z"/></g></g></g></svg>