<svg width="24" height="24" viewBox="0 0 24 24" fill="none" xmlns="http://www.w3.org/2000/svg">
<path fill-rule="evenodd" clip-rule="evenodd" d="M7.99958 15C13 15 13 21 13 21H3C3 21 2.99916 15 7.99958 15Z" stroke="#0194F3" stroke-width="2" stroke-linecap="round" stroke-linejoin="round"></path>
<path fill-rule="evenodd" clip-rule="evenodd" d="M8 13C9.65685 13 11 11.6569 11 10C11 8.34315 9.65685 7 8 7C6.34315 7 5 8.34315 5 10C5 11.6569 6.34315 13 8 13Z" stroke="#0194F3" stroke-width="2" stroke-linecap="round" stroke-linejoin="round"></path>
<path d="M9 4V3H20V21M20 21H21M20 21H16M13 7H17M17 12H15M17 12V10.5M17 12V13" stroke="#687176" stroke-width="2" stroke-linecap="round" stroke-linejoin="round"></path>
</svg>