<svg width="24" height="24" viewBox="0 0 24 24" fill="none" xmlns="http://www.w3.org/2000/svg">
<path d="M12 22C17.5228 22 22 17.5228 22 12C22 6.47715 17.5228 2 12 2C6.47715 2 2 6.47715 2 12C2 17.5228 6.47715 22 12 22Z" fill="url(#paint0_linear_10567_5654)"></path>
<path d="M6.52666 11.8944C9.44186 10.6243 11.3858 9.78696 12.3584 9.3824C15.1355 8.22731 15.7126 8.02666 16.0887 8.01996C16.1714 8.01858 16.3564 8.03908 16.4762 8.1363C16.5774 8.21839 16.6052 8.32928 16.6185 8.40711C16.6319 8.48494 16.6484 8.66224 16.6353 8.80077C16.4848 10.382 15.8336 14.2193 15.5023 15.9903C15.3621 16.7396 15.0861 16.9909 14.8189 17.0155C14.2382 17.0689 13.7972 16.6317 13.2348 16.263C12.3546 15.6861 11.8574 15.3269 11.0031 14.764C10.0158 14.1133 10.6558 13.7557 11.2185 13.1713C11.3657 13.0184 13.9244 10.6911 13.9739 10.48C13.9801 10.4536 13.9859 10.3551 13.9274 10.3032C13.8689 10.2512 13.7826 10.269 13.7203 10.2831C13.6321 10.3031 12.226 11.2325 9.50228 13.0711C9.10319 13.3451 8.7417 13.4787 8.41782 13.4717C8.06077 13.4639 7.37395 13.2698 6.86336 13.1038C6.23711 12.9002 5.73938 12.7926 5.78272 12.4469C5.8053 12.2668 6.05328 12.0827 6.52666 11.8944Z" fill="white"></path>
<defs>
<linearGradient id="paint0_linear_10567_5654" x1="12" y1="2" x2="12" y2="21.8516" gradientUnits="userSpaceOnUse">
<stop stop-color="#2AABEE"></stop>
<stop offset="1" stop-color="#229ED9"></stop>
</linearGradient>
</defs>
</svg>