<svg xmlns="http://www.w3.org/2000/svg" width="467" height="420" fill="none" viewBox="0 0 467 420"><g clip-path="url(#clip0_3724_83928)"><path fill="#F6FBFE" d="M270.047 346.329c62.445-10.269 156.113-25.673 187.122-39.58V-168.98H-3.687v588.051c88.935-33.365 179.977-57.323 273.734-72.742Z"/><path fill="#DFF1FB" d="M-27.037-111.834S38.376-43.924 94.123 27.252c29.906 38.229 93.897 103.412 93.897 156.312 1.095 67.026-88.228 114.365-139.88 136.52l-75.175 33.853v-465.771Z"/></g><defs><clipPath id="clip0_3724_83928"><path fill="#fff" d="M0 12.29C0 5.502 5.502 0 12.29 0H454.71C461.498 0 467 5.502 467 12.29v394.492c0 6.787-5.502 12.289-12.289 12.289H12.289C5.502 419.071 0 413.569 0 406.782V12.289Z"/></clipPath></defs></svg>